# xmcd CD database file
#
# Track frame offsets:
#	150
#	13169
#	24377
#	39048
#	68111
#	80202
#	94658
#	105040
#	123266
#	141586
#	153452
#	167342
#	178893
#	188656
#	201083
#	208714
#	230132
#
# Disc length: 3249 seconds
#
# Revision: 0
# Processed by: cddbd v1.5.2PL0 Copyright (c) Steve Scherf et al.
# Submitted via: CDex 1.51
#
DISCID=df0caf11
DTITLE=Blind Lemming Chiffon - Cliff Notes
DYEAR=2014
DGENRE=Blues
TTITLE0=Jivin' Man
TTITLE1=Police Got My Dad
TTITLE2=Walk Right In
TTITLE3=Travelin' Man
TTITLE4=Meet Me In St. Louis
TTITLE5=Kill It Kid
TTITLE6=Stop That Dancing Up There
TTITLE7=Still Gonna Die
TTITLE8=Did You Know John Hurt
TTITLE9=Coca-Cola Blues
TTITLE10=I Am The Walrus
TTITLE11=Cocaine Bill And Morphine Sue
TTITLE12=Cocaine Lil
TTITLE13=Rag Mama Rag
TTITLE14=12th Street Rag-Looney Tunes Medley
TTITLE15=Hot Tamales
TTITLE16=Blind Lemming Blues
EXTD=YEAR: 2014
EXTT0=
EXTT1=
EXTT2=
EXTT3=
EXTT4=
EXTT5=
EXTT6=
EXTT7=
EXTT8=
EXTT9=
EXTT10=
EXTT11=
EXTT12=
EXTT13=
EXTT14=
EXTT15=
EXTT16=
PLAYORDER=
